Coordinates
version=1
nRows=7
nColumns=40
inDegrees=yes

Units are S.I. units (second, meters, Newtons, ...)
Angles are in degrees.

endheader
time	pelvis_tilt	pelvis_list	pelvis_rotation	pelvis_tx	pelvis_ty	pelvis_tz	hip_flexion_r	hip_adduction_r	hip_rotation_r	knee_angle_r	knee_angle_r_beta	ankle_angle_r	subtalar_angle_r	mtp_angle_r	hip_flexion_l	hip_adduction_l	hip_rotation_l	knee_angle_l	knee_angle_l_beta	ankle_angle_l	subtalar_angle_l	mtp_angle_l	lumbar_extension	lumbar_bending	lumbar_rotation	arm_flex_r	arm_add_r	arm_rot_r	elbow_flex_r	pro_sup_r	wrist_flex_r	wrist_dev_r	arm_flex_l	arm_add_l	arm_rot_l	elbow_flex_l	pro_sup_l	wrist_flex_l	wrist_dev_l
      0.81000000	     -1.50617059	     -3.56308581	      1.09205318	      1.03622489	      0.93583903	      0.43839703	     26.12503802	     -7.02877569	     -4.55953780	     57.27415797	     57.27415797	      6.05635164	    -11.72026132	      0.04073547	     12.38240640	     -4.89931285	    -11.30745234	     19.22277809	     19.22277809	     10.24237995	    -10.80919317	     -6.40650865	    -10.32893979	      2.37938071	      0.47440264	      1.38539574	    -12.87260909	     -7.99350686	     28.73990133	     46.30218812	      0.00000000	      0.00000000	     10.36101230	    -14.27273600	     -3.85446063	     49.19707735	     46.41793954	      0.00000000	      0.00000000
      0.82278571	     -1.49719863	     -3.63091421	      0.65292316	      1.03605907	      0.93636595	      0.43833163	     26.48517743	     -6.88039017	     -4.41897210	     54.99065185	     54.99065185	      6.10334429	    -11.22600811	     -0.01452476	     11.63966959	     -4.92952327	    -11.60061516	     18.66406276	     18.66406276	     10.31445383	    -10.88460449	     -6.53401616	    -10.42190091	      2.45316387	      0.61502933	     -0.08579889	    -13.36803677	     -8.09181123	     27.67360150	     46.34446837	      0.00000000	      0.00000000	     11.13867620	    -14.52665518	     -4.14182830	     50.19508483	     46.46832169	      0.00000000	      0.00000000
      0.83557143	     -1.52390169	     -3.74416525	      0.23856487	      1.03585672	      0.93679909	      0.43828766	     26.76677022	     -6.65292605	     -4.32626441	     52.50620251	     52.50620251	      5.98493074	    -10.82755882	      0.05387635	     10.96628558	     -5.01184521	    -11.90067357	     18.14742366	     18.14742366	     10.40382785	    -10.88966146	     -6.67186425	    -10.49425453	      2.61021665	      0.59278514	     -1.47469248	    -13.81455635	     -8.26595014	     26.83973770	     46.38341664	      0.00000000	      0.00000000	     11.73618793	    -14.85662403	     -4.44492391	     51.32342830	     46.51819920	      0.00000000	      0.00000000
      0.84835714	     -1.51461968	     -3.82383113	     -0.18772801	      1.03571712	      0.93720219	      0.43832070	     26.88645435	     -6.43284482	     -4.24130104	     49.82902404	     49.82902404	      5.82029667	    -10.36847840	      0.16710442	     10.23648692	     -5.05639447	    -12.25632993	     17.59723950	     17.59723950	     10.46758905	    -10.87080152	     -6.83085684	    -10.62126026	      2.71708082	      0.65570602	     -2.86883101	    -14.25200710	     -8.49802378	     26.02238160	     46.42691201	      0.00000000	      0.00000000	     12.30277875	    -15.20201257	     -4.80261657	     52.70640750	     46.57525577	      0.00000000	      0.00000000
      0.86114286	     -1.45234798	     -3.78656753	     -0.64816986	      1.03565434	      0.93750468	      0.43845583	     26.85028104	     -6.29396866	     -4.11179570	     46.93590567	     46.93590567	      5.16767642	     -9.98866491	     -0.83862753	      9.39040963	     -4.95865757	    -12.64097596	     16.91300150	     16.91300150	     10.07556660	    -11.12071129	     -8.00970130	    -10.87566777	      2.61361456	      0.25092639	     -3.64674236	    -14.43599080	     -9.99118160	     24.85557142	     46.60337829	      0.00000000	      0.00000000	     11.64940315	    -15.86463531	     -5.88867975	     56.69583105	     46.73600662	      0.00000000	      0.00000000
      0.87392857	     -1.46048592	     -3.82407649	     -1.08393792	      1.03557523	      0.93773265	      0.43871372	     26.79544669	     -6.08379191	     -4.14249204	     43.91971726	     43.91971726	      4.84307399	     -9.22845769	     -0.48639218	      8.69033053	     -4.95284234	    -12.99224515	     16.37552017	     16.37552017	     10.16070145	    -11.12697709	     -8.03105224	    -10.98573875	      2.65603105	      0.34210780	     -4.86759700	    -14.83261932	    -10.26771833	     24.11704410	     46.65086040	      0.00000000	      0.00000000	     12.34680376	    -16.16582803	     -6.27826684	     57.65504922	     46.79193589	      0.00000000	      0.00000000
      0.88671429	     -1.47547540	     -3.77987495	     -1.50881774	      1.03556614	      0.93783416	      0.43905082	     26.63372124	     -5.93543193	     -4.22130563	     40.67759077	     40.67759077	      4.19562058	     -8.37406797	     -0.99406495	      7.94646761	     -4.83375316	    -13.29945682	     15.70556396	     15.70556396	      9.94835372	    -11.32870192	     -8.67981132	    -11.11277950	      2.60129976	      0.16474243	     -5.66885084	    -14.98667691	    -12.06624205	     23.18788654	     46.85417666	      0.00000000	      0.00000000	     12.31065311	    -16.51276102	     -7.30379490	     60.13808925	     46.94061626	      0.00000000	      0.00000000
